<svg width="64" height="64" viewBox="0 0 64 64" fill="none" xmlns="http://www.w3.org/2000/svg">
    <g>
        <path d="M0 0H64V64H0V0Z" fill="#44475A"/>
        <path d="M0 0H64V64H0V0Z" fill="#44475A"/>
        <path d="M36.0909 49L25.2727 47.4889L17.5455 39.9333L16 29.3556L20.6364 20.2889L29.9091 15L33 15.7556C33 15.7556 33.3784 20.1392 35.3182 21.8C37.1903 23.4029 41.5 23.3111 41.5 23.3111C41.5 23.3111 41.9924 27.5755 43.8182 29.3556C45.4456 30.9422 49.2273 31.6222 49.2273 31.6222L50 34.6444L45.3636 43.7111L36.0909 49Z" fill="#F8F8F2"/>
        <path d="M26.8182 26.3333C26.8182 25.0815 27.8561 24.0667 29.1364 24.0667C30.4167 24.0667 31.4545 25.0815 31.4545 26.3333C31.4545 27.5852 30.4167 28.6 29.1364 28.6C27.8561 28.6 26.8182 27.5852 26.8182 26.3333Z" fill="#6272A4"/>
        <path d="M24.5 37.6667C24.5 36.4148 25.5379 35.4 26.8182 35.4C28.0985 35.4 29.1364 36.4148 29.1364 37.6667C29.1364 38.9185 28.0985 39.9333 26.8182 39.9333C25.5379 39.9333 24.5 38.9185 24.5 37.6667Z" fill="#6272A4"/>
        <path d="M38.4091 35.4C38.4091 34.1482 39.447 33.1333 40.7273 33.1333C42.0076 33.1333 43.0455 34.1482 43.0455 35.4C43.0455 36.6518 42.0076 37.6667 40.7273 37.6667C39.447 37.6667 38.4091 36.6518 38.4091 35.4Z" fill="#6272A4"/>
    </g>
</svg>
